<svg xmlns="http://www.w3.org/2000/svg" version="1.1" xmlns:xlink="http://www.w3.org/1999/xlink" xmlns:svgjs="http://svgjs.dev/svgjs" width="1500" height="1500" viewBox="0 0 1500 1500"><rect width="1500" height="1500" fill="#000000"></rect><g transform="matrix(0.6666666666666666,0,0,0.6666666666666666,249.39393939393938,645.0223941981913)"><svg viewBox="0 0 396 83" data-background-color="#77d4fc" preserveAspectRatio="xMidYMid meet" height="314" width="1500" xmlns="http://www.w3.org/2000/svg" xmlns:xlink="http://www.w3.org/1999/xlink"><g id="tight-bounds" transform="matrix(1,0,0,1,0.2400000000000091,0.12328637683185661)"><svg viewBox="0 0 395.52 82.75342724633632" height="82.75342724633632" width="395.52"><g><svg viewBox="0 0 507.61275389528043 106.20624772144394" height="82.75342724633632" width="395.52"><g transform="matrix(1,0,0,1,0,29.987623299965964)"><svg viewBox="0 0 395.52 46.231001121512016" height="46.231001121512016" width="395.52"><g id="textblocktransform"><svg viewBox="0 0 395.52 46.231001121512016" height="46.231001121512016" width="395.52" id="textblock"><g><svg viewBox="0 0 395.52 24.93479292192554" height="24.93479292192554" width="395.52"><g transform="matrix(1,0,0,1,0,0)"><svg width="395.52" viewBox="1.2 -38.7 788.24 49.7" height="24.93479292192554" data-palette-color="#000000"><path d="M7.9 0Q4.95 0 3.08-1.88 1.2-3.75 1.2-6.93 1.2-10.1 4.1-12.43 7-14.75 11.15-14.75L11.15-14.75 14.55-14.75 14.55-15.6Q14.55-18.05 13.55-18.95 12.55-19.85 9.8-19.85L9.8-19.85Q8.65-19.85 7.08-19.38 5.5-18.9 3.55-17.9L3.55-17.9 2.1-21.85Q4.25-23.35 7.33-24.55 10.4-25.75 12.4-25.75L12.4-25.75Q20.25-25.75 20.25-18.15L20.25-18.15 20.25-8.35Q20.25-5.55 22-2.1L22-2.1 16.7 0.15Q15.45-2.25 14.85-4.15L14.85-4.15Q12.1 0 7.9 0L7.9 0ZM10-5.1L10-5.1Q12-5.1 14.55-7.15L14.55-7.15 14.55-10.5Q11.9-11.1 10.25-11.1L10.25-11.1Q7.1-11.1 7.1-8.3L7.1-8.3Q7.1-6.85 7.9-5.98 8.7-5.1 10-5.1ZM26.35-37.45L33.2-38.7 32.55-13 33.1-1.25 26.35 0 26.95-12.15 26.35-37.45ZM39-37.45L45.85-38.7 45.2-13 45.75-1.25 39 0 39.6-12.15 39-37.45ZM58.39-24.2L61.29-24.2 61.29-29.65 68.04-30.95 67.39-24.2 73.44-24.2 72.89-20.1 67.19-20.1 66.94-9.65Q66.94-7.3 67.39-6.53 67.84-5.75 69.04-5.75 70.24-5.75 72.24-6.3L72.24-6.3 72.54-2.75Q69.24 0 66.74 0 64.24 0 62.64-1.83 61.04-3.65 61.04-6.6L61.04-6.6 61.34-12.2 61.29-20.1 57.84-20.1 58.39-24.2ZM84.24 11L77.79 9.65 82.94-1.9 79.24-12 74.19-24.15 80.84-25.4 84.04-14.75 85.69-9.7 86.34-9.7 87.54-13.35 91.14-25.45 97.29-24.7 88.44-1.45 84.24 11ZM113.69-25.25L113.69-25.25Q116.89-25.25 119.06-22.45 121.24-19.65 121.24-14.9L121.24-14.9Q121.24-8.25 117.81-4.13 114.39 0 109.29 0L109.29 0Q108.24 0 106.94-0.15L106.94-0.15 107.19 9.4 100.34 10.65 100.99-12.15 101.04-12.15Q100.84-18.85 99.94-24.15L99.94-24.15 105.99-25.45Q106.29-22.8 106.49-20.2L106.49-20.2Q106.59-20.45 107.51-21.58 108.44-22.7 110.24-23.98 112.04-25.25 113.69-25.25ZM111.74-18.75L111.74-18.75Q109.09-18.75 106.59-17.3L106.59-17.3 106.59-13 106.79-5.85Q109.49-5.4 110.89-5.4L110.89-5.4Q115.69-5.4 115.69-12.08 115.69-18.75 111.74-18.75ZM134.38-5.1L134.38-5.1Q135.83-5.1 137.43-5.85 139.03-6.6 139.93-7.35L139.93-7.35 140.83-8.1 143.13-5.3Q142.63-4.45 141.58-3.35 140.53-2.25 139.46-1.48 138.38-0.7 136.61-0.08 134.83 0.55 132.93 0.55L132.93 0.55Q128.88 0.55 126.33-2.53 123.78-5.6 123.78-10.45L123.78-10.45Q123.78-16.55 127.33-21.15 130.88-25.75 135.63-25.75L135.63-25.75Q139.28-25.75 141.31-23.7 143.33-21.65 143.33-17.95L143.33-17.95Q143.33-15.75 142.58-12.95L142.58-12.95 141.58-11.9 129.08-10.75Q129.93-5.1 134.38-5.1ZM134.38-20.6L134.38-20.6Q132.18-20.6 130.68-18.82 129.18-17.05 128.93-14.3L128.93-14.3 137.43-15.35Q137.58-16.5 137.58-17.25L137.58-17.25Q137.58-20.6 134.38-20.6ZM168.63-25.25L168.63-25.25Q171.98-25.25 174.08-22.35 176.18-19.45 176.18-14.9L176.18-14.9Q176.18-8.35 172.75-4.17 169.33 0 163.88 0L163.88 0Q161.38 0 155.48-0.8L155.48-0.8 155.98-12.15 155.38-37.45 162.23-38.7 161.58-25.8 161.58-20.4Q162.13-21.2 162.93-22.1 163.73-23 165.43-24.13 167.13-25.25 168.63-25.25ZM166.68-18.75L166.68-18.75Q164.38-18.75 161.58-17.35L161.58-17.35 161.58-13 161.88-5.65Q163.98-5.4 165.83-5.4L165.83-5.4Q170.63-5.4 170.63-12.08 170.63-18.75 166.68-18.75ZM178.83-10.45Q178.83-16.85 182.28-21.3 185.73-25.75 190.35-25.75 194.98-25.75 197.55-22.75 200.13-19.75 200.13-14.8L200.13-14.8Q200.13-8.2 196.8-3.83 193.48 0.55 188.43 0.55L188.43 0.55Q184.28 0.55 181.55-2.58 178.83-5.7 178.83-10.45L178.83-10.45ZM194.53-12.2L194.53-12.2Q194.53-19.45 189.58-19.45L189.58-19.45Q184.43-19.45 184.43-12.65L184.43-12.65Q184.43-9.1 185.88-7.1 187.33-5.1 189.7-5.1 192.08-5.1 193.3-6.93 194.53-8.75 194.53-12.2ZM224.72-3.3L219.17 0.5 213.22-8.35 207.07 0.5 202.12-2.25 209.97-12.4 202.52-21.6 208.07-25.4 213.52-16.95 219.42-25.5 224.27-22.5 216.82-12.8 224.72-3.3ZM237.07-5.1L237.07-5.1Q238.52-5.1 240.12-5.85 241.72-6.6 242.62-7.35L242.62-7.35 243.52-8.1 245.82-5.3Q245.32-4.45 244.27-3.35 243.22-2.25 242.15-1.48 241.07-0.7 239.3-0.08 237.52 0.55 235.62 0.55L235.62 0.55Q231.57 0.55 229.02-2.53 226.47-5.6 226.47-10.45L226.47-10.45Q226.47-16.55 230.02-21.15 233.57-25.75 238.32-25.75L238.32-25.75Q241.97-25.75 244-23.7 246.02-21.65 246.02-17.95L246.02-17.95Q246.02-15.75 245.27-12.95L245.27-12.95 244.27-11.9 231.77-10.75Q232.62-5.1 237.07-5.1ZM237.07-20.6L237.07-20.6Q234.87-20.6 233.37-18.82 231.87-17.05 231.62-14.3L231.62-14.3 240.12-15.35Q240.27-16.5 240.27-17.25L240.27-17.25Q240.27-20.6 237.07-20.6ZM257.92-4.65L257.92-4.65Q260.52-4.65 260.52-6.95L260.52-6.95Q260.52-7.75 259.39-8.45 258.27-9.15 256.64-9.85 255.02-10.55 253.39-11.43 251.77-12.3 250.64-13.85 249.52-15.4 249.52-17.4L249.52-17.4Q249.52-20.75 252.47-23.25 255.42-25.75 259.27-25.75L259.27-25.75Q261.07-25.75 262.79-25.33 264.52-24.9 266.12-24L266.12-24 262.77-17.9Q262.42-18.2 261.87-18.65 261.32-19.1 259.79-19.83 258.27-20.55 257.09-20.55 255.92-20.55 255.29-20.03 254.67-19.5 254.67-18.57 254.67-17.65 256.39-16.73 258.12-15.8 260.17-15.03 262.22-14.25 263.94-12.48 265.67-10.7 265.67-8.25L265.67-8.25Q265.67-4.75 262.79-2.1 259.92 0.55 256.17 0.55L256.17 0.55Q253.77 0.55 251.69-0.5 249.62-1.55 248.72-2.6L248.72-2.6 247.82-3.65 251.77-8.25Q252.07-7.85 252.62-7.25 253.17-6.65 254.79-5.65 256.42-4.65 257.92-4.65ZM291.11-25.25L291.11-25.25Q294.31-25.25 296.49-22.45 298.66-19.65 298.66-14.9L298.66-14.9Q298.66-8.25 295.24-4.13 291.81 0 286.71 0L286.71 0Q285.66 0 284.36-0.15L284.36-0.15 284.61 9.4 277.76 10.65 278.41-12.15 278.46-12.15Q278.26-18.85 277.36-24.15L277.36-24.15 283.41-25.45Q283.71-22.8 283.91-20.2L283.91-20.2Q284.01-20.45 284.94-21.58 285.86-22.7 287.66-23.98 289.46-25.25 291.11-25.25ZM289.16-18.75L289.16-18.75Q286.51-18.75 284.01-17.3L284.01-17.3 284.01-13 284.21-5.85Q286.91-5.4 288.31-5.4L288.31-5.4Q293.11-5.4 293.11-12.08 293.11-18.75 289.16-18.75ZM307.81 0Q304.86 0 302.99-1.88 301.11-3.75 301.11-6.93 301.11-10.1 304.01-12.43 306.91-14.75 311.06-14.75L311.06-14.75 314.46-14.75 314.46-15.6Q314.46-18.05 313.46-18.95 312.46-19.85 309.71-19.85L309.71-19.85Q308.56-19.85 306.99-19.38 305.41-18.9 303.46-17.9L303.46-17.9 302.01-21.85Q304.16-23.35 307.24-24.55 310.31-25.75 312.31-25.75L312.31-25.75Q320.16-25.75 320.16-18.15L320.16-18.15 320.16-8.35Q320.16-5.55 321.91-2.1L321.91-2.1 316.61 0.15Q315.36-2.25 314.76-4.15L314.76-4.15Q312.01 0 307.81 0L307.81 0ZM309.91-5.1L309.91-5.1Q311.91-5.1 314.46-7.15L314.46-7.15 314.46-10.5Q311.81-11.1 310.16-11.1L310.16-11.1Q307.01-11.1 307.01-8.3L307.01-8.3Q307.01-6.85 307.81-5.98 308.61-5.1 309.91-5.1ZM339.61-25.25L339.61-25.25Q342.81-25.25 344.98-22.45 347.16-19.65 347.16-14.9L347.16-14.9Q347.16-8.25 343.73-4.13 340.31 0 335.21 0L335.21 0Q334.16 0 332.86-0.15L332.86-0.15 333.11 9.4 326.26 10.65 326.91-12.15 326.96-12.15Q326.76-18.85 325.86-24.15L325.86-24.15 331.91-25.45Q332.21-22.8 332.41-20.2L332.41-20.2Q332.51-20.45 333.43-21.58 334.36-22.7 336.16-23.98 337.96-25.25 339.61-25.25ZM337.66-18.75L337.66-18.75Q335.01-18.75 332.51-17.3L332.51-17.3 332.51-13 332.71-5.85Q335.41-5.4 336.81-5.4L336.81-5.4Q341.61-5.4 341.61-12.08 341.61-18.75 337.66-18.75ZM360.31-5.1L360.31-5.1Q361.76-5.1 363.36-5.85 364.96-6.6 365.86-7.35L365.86-7.35 366.76-8.1 369.06-5.3Q368.56-4.45 367.51-3.35 366.46-2.25 365.38-1.48 364.31-0.7 362.53-0.08 360.76 0.55 358.86 0.55L358.86 0.55Q354.81 0.55 352.26-2.53 349.71-5.6 349.71-10.45L349.71-10.45Q349.71-16.55 353.26-21.15 356.81-25.75 361.56-25.75L361.56-25.75Q365.21-25.75 367.23-23.7 369.26-21.65 369.26-17.95L369.26-17.95Q369.26-15.75 368.51-12.95L368.51-12.95 367.51-11.9 355.01-10.75Q355.86-5.1 360.31-5.1ZM360.31-20.6L360.31-20.6Q358.11-20.6 356.61-18.82 355.11-17.05 354.86-14.3L354.86-14.3 363.36-15.35Q363.51-16.5 363.51-17.25L363.51-17.25Q363.51-20.6 360.31-20.6ZM373.05-24.15L373.05-24.15 379.1-25.45Q379.55-21.6 379.7-18.15L379.7-18.15Q384.25-25.2 388.25-25.2L388.25-25.2 387.7-17.4Q384.8-17.4 383.13-16.88 381.45-16.35 379.7-14.8L379.7-14.8 379.7-13 380.25-1.25 373.55 0 374.15-12.15Q373.95-18.85 373.05-24.15ZM396.75-3.35L396.75-3.35Q396.75 0.9 390.55 5.65L390.55 5.65 388.5 4.15Q391.45 0.7 391.45-1.8L391.45-1.8Q391.45-3.35 390.15-5.75L390.15-5.75 395.05-7.7Q396.75-5.55 396.75-3.35ZM414.9-25.25L414.9-25.25Q418.25-25.25 420.35-22.35 422.45-19.45 422.45-14.9L422.45-14.9Q422.45-8.35 419.02-4.17 415.6 0 410.15 0L410.15 0Q407.65 0 401.75-0.8L401.75-0.8 402.25-12.15 401.65-37.45 408.5-38.7 407.85-25.8 407.85-20.4Q408.4-21.2 409.2-22.1 410-23 411.7-24.13 413.4-25.25 414.9-25.25ZM412.95-18.75L412.95-18.75Q410.65-18.75 407.85-17.35L407.85-17.35 407.85-13 408.15-5.65Q410.25-5.4 412.1-5.4L412.1-5.4Q416.9-5.4 416.9-12.08 416.9-18.75 412.95-18.75ZM431.6 0Q428.65 0 426.77-1.88 424.9-3.75 424.9-6.93 424.9-10.1 427.8-12.43 430.7-14.75 434.85-14.75L434.85-14.75 438.25-14.75 438.25-15.6Q438.25-18.05 437.25-18.95 436.25-19.85 433.5-19.85L433.5-19.85Q432.35-19.85 430.77-19.38 429.2-18.9 427.25-17.9L427.25-17.9 425.8-21.85Q427.95-23.35 431.02-24.55 434.1-25.75 436.1-25.75L436.1-25.75Q443.95-25.75 443.95-18.15L443.95-18.15 443.95-8.35Q443.95-5.55 445.7-2.1L445.7-2.1 440.4 0.15Q439.15-2.25 438.55-4.15L438.55-4.15Q435.8 0 431.6 0L431.6 0ZM433.7-5.1L433.7-5.1Q435.7-5.1 438.25-7.15L438.25-7.15 438.25-10.5Q435.6-11.1 433.95-11.1L433.95-11.1Q430.8-11.1 430.8-8.3L430.8-8.3Q430.8-6.85 431.6-5.98 432.4-5.1 433.7-5.1ZM448.29 4.95L448.29 4.95Q448.29 0.55 456.49-1.95L456.49-1.95Q454.54-2.95 454.54-4.55L454.54-4.55Q454.54-5.2 455.04-5.85 455.54-6.5 456.49-7.2L456.49-7.2 456.49-7.6Q452.89-7.6 450.77-9.6 448.64-11.6 448.64-14.95L448.64-14.95Q448.64-19.3 452.19-22.53 455.74-25.75 460.59-25.75L460.59-25.75Q461.84-25.75 464.24-25.25 466.64-24.75 468.94-24.75L468.94-24.75 472.79-24.75 472.29-20.4 468.54-20.85Q469.04-19.4 469.04-17.55 469.04-15.7 468.17-13.88 467.29-12.05 466.07-10.95 464.84-9.85 463.62-9.03 462.39-8.2 461.52-7.58 460.64-6.95 460.64-6.45L460.64-6.45Q460.64-5.5 462.64-4.8L462.64-4.8Q467.94-2.65 469.82-1.15 471.69 0.35 471.69 2.55L471.69 2.55Q471.69 6.25 467.97 8.63 464.24 11 459.09 11 453.94 11 451.12 9.35 448.29 7.7 448.29 4.95ZM463.39-16.05L463.39-16.05Q463.39-18.5 462.29-19.65 461.19-20.8 458.84-20.8L458.84-20.8Q454.29-20.8 454.29-16.32 454.29-11.85 459.14-11.85L459.14-11.85Q463.39-11.85 463.39-16.05ZM465.19 3.3L465.19 3.3Q465.19 2.4 464.24 1.63 463.29 0.85 460.84-0.2L460.84-0.2Q457.19 0.8 455.82 1.65 454.44 2.5 454.44 3.75 454.44 5 455.82 5.78 457.19 6.55 459.64 6.55 462.09 6.55 463.64 5.65 465.19 4.75 465.19 3.3ZM490.69-4.65L490.69-4.65Q493.29-4.65 493.29-6.95L493.29-6.95Q493.29-7.75 492.16-8.45 491.04-9.15 489.41-9.85 487.79-10.55 486.16-11.43 484.54-12.3 483.41-13.85 482.29-15.4 482.29-17.4L482.29-17.4Q482.29-20.75 485.24-23.25 488.19-25.75 492.04-25.75L492.04-25.75Q493.84-25.75 495.56-25.33 497.29-24.9 498.89-24L498.89-24 495.54-17.9Q495.19-18.2 494.64-18.65 494.09-19.1 492.56-19.83 491.04-20.55 489.86-20.55 488.69-20.55 488.06-20.03 487.44-19.5 487.44-18.57 487.44-17.65 489.16-16.73 490.89-15.8 492.94-15.03 494.99-14.25 496.71-12.48 498.44-10.7 498.44-8.25L498.44-8.25Q498.44-4.75 495.56-2.1 492.69 0.55 488.94 0.55L488.94 0.55Q486.54 0.55 484.46-0.5 482.39-1.55 481.49-2.6L481.49-2.6 480.59-3.65 484.54-8.25Q484.84-7.85 485.39-7.25 485.94-6.65 487.56-5.65 489.19-4.65 490.69-4.65ZM501.88-24.2L504.79-24.2 504.79-29.65 511.54-30.95 510.88-24.2 516.93-24.2 516.38-20.1 510.69-20.1 510.44-9.65Q510.44-7.3 510.88-6.53 511.33-5.75 512.53-5.75 513.74-5.75 515.74-6.3L515.74-6.3 516.03-2.75Q512.74 0 510.24 0 507.74 0 506.13-1.83 504.54-3.65 504.54-6.6L504.54-6.6 504.83-12.2 504.79-20.1 501.33-20.1 501.88-24.2ZM520.58-24.2L527.28-25.45 526.68-13 527.23-1.25 520.53 0 521.13-12.15 520.58-24.2ZM520.23-32.77Q520.23-34.45 521.53-35.77 522.83-37.1 524.53-37.1 526.23-37.1 527.13-36.18 528.03-35.25 528.03-33.4 528.03-31.55 526.76-30.23 525.48-28.9 523.81-28.9 522.13-28.9 521.18-30 520.23-31.1 520.23-32.77ZM541.38-19.25Q539.18-19.25 537.98-17.68 536.78-16.1 536.78-12.85 536.78-9.6 538-7.63 539.23-5.65 541.58-5.65L541.58-5.65Q542.78-5.65 543.93-6.4 545.08-7.15 545.68-7.9L545.68-7.9 546.23-8.7 548.73-6.1Q548.58-5.85 548.35-5.4 548.13-4.95 547.25-3.8 546.38-2.65 545.4-1.78 544.43-0.9 542.88-0.18 541.33 0.55 539.63 0.55L539.63 0.55Q535.88 0.55 533.53-2.5 531.18-5.55 531.18-10.45L531.18-10.45Q531.18-16.55 534.73-21.15 538.28-25.75 543.03-25.75L543.03-25.75Q544.48-25.75 545.93-25.33 547.38-24.9 548.88-24L548.88-24 545.38-17.85Q543.58-19.25 541.38-19.25ZM573.33-3.3L567.63 0.5 558.23-13.35 558.23-13 558.78-1.25 552.03 0 552.63-12.15 552.03-37.45 558.88-38.7 558.23-14.55 568.23-25.5 572.93-22.3 564.18-14.1 573.33-3.3ZM585.12-5.1L585.12-5.1Q586.57-5.1 588.17-5.85 589.77-6.6 590.67-7.35L590.67-7.35 591.57-8.1 593.87-5.3Q593.37-4.45 592.32-3.35 591.27-2.25 590.2-1.48 589.12-0.7 587.35-0.08 585.57 0.55 583.67 0.55L583.67 0.55Q579.62 0.55 577.07-2.53 574.52-5.6 574.52-10.45L574.52-10.45Q574.52-16.55 578.07-21.15 581.62-25.75 586.37-25.75L586.37-25.75Q590.02-25.75 592.05-23.7 594.07-21.65 594.07-17.95L594.07-17.95Q594.07-15.75 593.32-12.95L593.32-12.95 592.32-11.9 579.82-10.75Q580.67-5.1 585.12-5.1ZM585.12-20.6L585.12-20.6Q582.92-20.6 581.42-18.82 579.92-17.05 579.67-14.3L579.67-14.3 588.17-15.35Q588.32-16.5 588.32-17.25L588.32-17.25Q588.32-20.6 585.12-20.6ZM597.87-24.15L597.87-24.15 603.92-25.45Q604.37-21.6 604.52-18.15L604.52-18.15Q609.07-25.2 613.07-25.2L613.07-25.2 612.52-17.4Q609.62-17.4 607.95-16.88 606.27-16.35 604.52-14.8L604.52-14.8 604.52-13 605.07-1.25 598.37 0 598.97-12.15Q598.77-18.85 597.87-24.15ZM623.77-4.65L623.77-4.65Q626.37-4.65 626.37-6.95L626.37-6.95Q626.37-7.75 625.24-8.45 624.12-9.15 622.49-9.85 620.87-10.55 619.24-11.43 617.62-12.3 616.49-13.85 615.37-15.4 615.37-17.4L615.37-17.4Q615.37-20.75 618.32-23.25 621.27-25.75 625.12-25.75L625.12-25.75Q626.92-25.75 628.64-25.33 630.37-24.9 631.97-24L631.97-24 628.62-17.9Q628.27-18.2 627.72-18.65 627.17-19.1 625.64-19.83 624.12-20.55 622.94-20.55 621.77-20.55 621.14-20.03 620.52-19.5 620.52-18.57 620.52-17.65 622.24-16.73 623.97-15.8 626.02-15.03 628.07-14.25 629.79-12.48 631.52-10.7 631.52-8.25L631.52-8.25Q631.52-4.75 628.64-2.1 625.77 0.55 622.02 0.55L622.02 0.55Q619.62 0.55 617.54-0.5 615.47-1.55 614.57-2.6L614.57-2.6 613.67-3.65 617.62-8.25Q617.92-7.85 618.47-7.25 619.02-6.65 620.64-5.65 622.27-4.65 623.77-4.65ZM658.51-38.25L656.96-32.55Q655.11-33 653.61-33 652.11-33 651.44-32.1 650.76-31.2 650.76-28.95L650.76-28.95 650.71-24.2 656.11-24.2 655.56-20.1 650.71-20.1 650.66-13 651.21-1.25 644.46 0 645.06-12.15 644.86-20.1 641.56-20.1 642.11-24.2 644.76-24.2 644.71-28Q644.71-32.45 647.46-35.58 650.21-38.7 654.16-38.7L654.16-38.7Q656.26-38.7 658.51-38.25L658.51-38.25ZM658.76-24.2L665.46-25.45 664.86-13 665.41-1.25 658.71 0 659.31-12.15 658.76-24.2ZM658.41-32.77Q658.41-34.45 659.71-35.77 661.01-37.1 662.71-37.1 664.41-37.1 665.31-36.18 666.21-35.25 666.21-33.4 666.21-31.55 664.94-30.23 663.66-28.9 661.99-28.9 660.31-28.9 659.36-30 658.41-31.1 658.41-32.77ZM670.96-37.45L677.81-38.7 677.16-13 677.71-1.25 670.96 0 671.56-12.15 670.96-37.45ZM692.61-5.1L692.61-5.1Q694.06-5.1 695.66-5.85 697.26-6.6 698.16-7.35L698.16-7.35 699.06-8.1 701.36-5.3Q700.86-4.45 699.81-3.35 698.76-2.25 697.68-1.48 696.61-0.7 694.83-0.08 693.06 0.55 691.16 0.55L691.16 0.55Q687.11 0.55 684.56-2.53 682.01-5.6 682.01-10.45L682.01-10.45Q682.01-16.55 685.56-21.15 689.11-25.75 693.86-25.75L693.86-25.75Q697.51-25.75 699.53-23.7 701.56-21.65 701.56-17.95L701.56-17.95Q701.56-15.75 700.81-12.95L700.81-12.95 699.81-11.9 687.31-10.75Q688.16-5.1 692.61-5.1ZM692.61-20.6L692.61-20.6Q690.41-20.6 688.91-18.82 687.41-17.05 687.16-14.3L687.16-14.3 695.66-15.35Q695.81-16.5 695.81-17.25L695.81-17.25Q695.81-20.6 692.61-20.6ZM713.45-4.65L713.45-4.65Q716.05-4.65 716.05-6.95L716.05-6.95Q716.05-7.75 714.93-8.45 713.8-9.15 712.18-9.85 710.55-10.55 708.93-11.43 707.3-12.3 706.18-13.85 705.05-15.4 705.05-17.4L705.05-17.4Q705.05-20.75 708-23.25 710.95-25.75 714.8-25.75L714.8-25.75Q716.6-25.75 718.33-25.33 720.05-24.9 721.65-24L721.65-24 718.3-17.9Q717.95-18.2 717.4-18.65 716.85-19.1 715.33-19.83 713.8-20.55 712.63-20.55 711.45-20.55 710.83-20.03 710.2-19.5 710.2-18.57 710.2-17.65 711.93-16.73 713.65-15.8 715.7-15.03 717.75-14.25 719.48-12.48 721.2-10.7 721.2-8.25L721.2-8.25Q721.2-4.75 718.33-2.1 715.45 0.55 711.7 0.55L711.7 0.55Q709.3 0.55 707.23-0.5 705.15-1.55 704.25-2.6L704.25-2.6 703.35-3.65 707.3-8.25Q707.6-7.85 708.15-7.25 708.7-6.65 710.33-5.65 711.95-4.65 713.45-4.65ZM742.3-5.1L742.3-5.1Q743.75-5.1 745.35-5.85 746.95-6.6 747.85-7.35L747.85-7.35 748.75-8.1 751.05-5.3Q750.55-4.45 749.5-3.35 748.45-2.25 747.37-1.48 746.3-0.7 744.52-0.08 742.75 0.55 740.85 0.55L740.85 0.55Q736.8 0.55 734.25-2.53 731.7-5.6 731.7-10.45L731.7-10.45Q731.7-16.55 735.25-21.15 738.8-25.75 743.55-25.75L743.55-25.75Q747.2-25.75 749.22-23.7 751.25-21.65 751.25-17.95L751.25-17.95Q751.25-15.75 750.5-12.95L750.5-12.95 749.5-11.9 737-10.75Q737.85-5.1 742.3-5.1ZM742.3-20.6L742.3-20.6Q740.1-20.6 738.6-18.82 737.1-17.05 736.85-14.3L736.85-14.3 745.35-15.35Q745.5-16.5 745.5-17.25L745.5-17.25Q745.5-20.6 742.3-20.6ZM754.65-24.2L757.55-24.2 757.55-29.65 764.3-30.95 763.65-24.2 769.7-24.2 769.15-20.1 763.45-20.1 763.2-9.65Q763.2-7.3 763.65-6.53 764.1-5.75 765.3-5.75 766.5-5.75 768.5-6.3L768.5-6.3 768.8-2.75Q765.5 0 763 0 760.5 0 758.9-1.83 757.3-3.65 757.3-6.6L757.3-6.6 757.6-12.2 757.55-20.1 754.1-20.1 754.65-24.2ZM781.94-19.25Q779.74-19.25 778.54-17.68 777.34-16.1 777.34-12.85 777.34-9.6 778.57-7.63 779.79-5.65 782.14-5.65L782.14-5.65Q783.34-5.65 784.49-6.4 785.64-7.15 786.24-7.9L786.24-7.9 786.79-8.7 789.29-6.1Q789.14-5.85 788.92-5.4 788.69-4.95 787.82-3.8 786.94-2.65 785.97-1.78 784.99-0.9 783.44-0.18 781.89 0.55 780.19 0.55L780.19 0.55Q776.44 0.55 774.09-2.5 771.74-5.55 771.74-10.45L771.74-10.45Q771.74-16.55 775.29-21.15 778.84-25.75 783.59-25.75L783.59-25.75Q785.04-25.75 786.49-25.33 787.94-24.9 789.44-24L789.44-24 785.94-17.85Q784.14-19.25 781.94-19.25Z" opacity="1" transform="matrix(1,0,0,1,0,0)" fill="#ffffff" class="wordmark-text-0" data-fill-palette-color="primary" id="text-0"></path></svg></g></svg></g><g transform="matrix(1,0,0,1,357.0049415655641,30.821299095762033)"><svg viewBox="0 0 38.51505843443593 15.409702025749983" height="15.409702025749983" width="38.51505843443593"><g transform="matrix(1,0,0,1,0,0)"><svg width="38.51505843443593" viewBox="1.6618576416670001 -31.69 79.92855902499967 31.98" height="15.409702025749983" data-palette-color="#000000"><path d="M8.84 0.29L8.84 0.29Q4.91 0.29 3.38-0.98 1.86-2.25 1.73-5.13L1.73-5.13Q1.68-5.88 1.67-6.82 1.66-7.76 1.76-8.47L1.76-8.47 4.61-8.47Q4.57-7.35 4.58-6.41 4.59-5.47 4.61-4.81L4.61-4.81Q4.64-3.47 5.55-2.95 6.47-2.44 8.84-2.44L8.84-2.44Q11.25-2.44 12.24-2.95 13.23-3.47 13.31-4.81L13.31-4.81Q13.38-5.64 13.4-6.04 13.43-6.45 13.4-7.2L13.4-7.2Q13.33-8.45 12.74-9.13 12.16-9.81 10.21-10.11L10.21-10.11 7.35-10.77Q5.15-11.23 3.96-11.94 2.76-12.65 2.27-13.78 1.78-14.92 1.68-16.65L1.68-16.65Q1.61-17.53 1.81-18.58L1.81-18.58Q1.86-21.53 3.41-22.8 4.96-24.07 9.06-24.07L9.06-24.07Q12.99-24.07 14.51-22.83 16.04-21.58 16.19-18.73L16.19-18.73Q16.19-17.99 16.17-17.05 16.16-16.11 16.09-15.41L16.09-15.41 13.13-15.41Q13.26-16.26 13.24-17.36 13.23-18.46 13.18-19.07L13.18-19.07Q13.16-20.36 12.29-20.85 11.43-21.34 9.06-21.34L9.06-21.34Q6.67-21.34 5.8-20.85 4.93-20.36 4.83-19.07L4.83-19.07Q4.81-18.46 4.76-18.05 4.71-17.65 4.74-16.94L4.74-16.94Q4.81-16.09 4.99-15.43 5.18-14.77 5.82-14.34 6.47-13.92 7.93-13.7L7.93-13.7 10.67-13.13Q13.65-12.52 15.01-11.24 16.38-9.96 16.38-7.37L16.38-7.37Q16.38-6.84 16.37-6.23 16.36-5.62 16.31-5.05L16.31-5.05Q16.14-2.2 14.51-0.95 12.89 0.29 8.84 0.29ZM23.39-19.19L23.39 0 20.24 0 20.24-31.69 23.39-31.69 23.39-21.53 24.14-21.53Q25-22.83 26.13-23.45 27.27-24.07 29.25-24.07L29.25-24.07Q32-24.07 33.35-22.86 34.69-21.66 34.69-18.82L34.69-18.82 34.69 0 31.56 0 31.56-19.09Q31.56-20.31 30.8-20.86 30.03-21.41 28.32-21.41L28.32-21.41Q24.66-21.41 23.39-19.19L23.39-19.19ZM42.89-31.69L42.89-28.17 39.74-28.17 39.74-31.69 42.89-31.69ZM42.89-23.75L42.89 0 39.72 0 39.72-23.75 42.89-23.75ZM51.19-19.19L51.19 0 48.04 0 48.04-23.75 51.19-23.75 51.19-21.53 51.95-21.53Q52.7-22.75 53.94-23.41 55.17-24.07 57.05-24.07L57.05-24.07Q59.81-24.07 61.15-22.86 62.49-21.66 62.49-18.82L62.49-18.82 62.49 0 59.37 0 59.37-19.09Q59.37-20.31 58.6-20.86 57.83-21.41 56.12-21.41L56.12-21.41Q54.41-21.41 53.12-20.83 51.82-20.24 51.19-19.19L51.19-19.19ZM74.28 0.29L74.28 0.29Q70.25 0.29 68.53-0.98 66.81-2.25 66.69-5.13L66.69-5.13Q66.59-6.93 66.55-9.38 66.52-11.82 66.55-14.28 66.59-16.75 66.69-18.58L66.69-18.58Q66.81-21.53 68.58-22.8 70.35-24.07 74.28-24.07L74.28-24.07Q77.99-24.07 79.65-22.83 81.31-21.58 81.48-18.73L81.48-18.73Q81.53-17.87 81.58-15.75 81.63-13.62 81.44-11.23L81.44-11.23 69.74-11.23Q69.74-9.69 69.77-8.11 69.79-6.52 69.86-4.81L69.86-4.81Q69.89-3.47 70.89-2.95 71.89-2.44 74.18-2.44L74.18-2.44Q76.45-2.44 77.38-2.95 78.31-3.47 78.41-4.81L78.41-4.81Q78.48-6.15 78.41-8.47L78.41-8.47 81.44-8.47Q81.56-7.76 81.55-6.82 81.53-5.88 81.48-5.13L81.48-5.13Q81.31-2.25 79.74-0.98 78.16 0.29 74.28 0.29ZM69.74-13.82L69.74-13.82 78.46-13.82Q78.51-15.48 78.51-16.99 78.51-18.51 78.41-19.07L78.41-19.07Q78.31-20.29 77.36-20.81 76.41-21.34 74.28-21.34L74.28-21.34Q71.91-21.34 70.9-20.81 69.89-20.29 69.86-19.07L69.86-19.07Q69.79-17.65 69.75-16.36 69.72-15.06 69.74-13.82Z" opacity="1" transform="matrix(1,0,0,1,0,0)" fill="#ffffff" class="slogan-text-1" data-fill-palette-color="secondary" id="text-1"></path></svg></g></svg></g></svg></g></svg></g><g transform="matrix(1,0,0,1,401.4065061738365,0)"><svg viewBox="0 0 106.20624772144394 106.20624772144394" height="106.20624772144394" width="106.20624772144394"><g><svg></svg></g><g id="icon-0"><svg viewBox="0 0 106.20624772144394 106.20624772144394" height="106.20624772144394" width="106.20624772144394"><g><rect width="96.56901413190552" height="96.56901413190552" x="4.818616794769213" y="4.818616794769213" fill="#ffffff" data-fill-palette-color="accent"></rect><rect width="96.56901413190552" height="96.56901413190552" x="-3.552713678800501e-15" y="-3.552713678800501e-15" fill="#ffffff" opacity="0.5" data-fill-palette-color="accent"></rect></g><g transform="matrix(1,0,0,1,27.34338851059531,13.767476556483473)"><svg viewBox="0 0 51.51947070025332 78.671294608477" height="78.671294608477" width="51.51947070025332"><g><svg xmlns="http://www.w3.org/2000/svg" xmlns:xlink="http://www.w3.org/1999/xlink" version="1.1" x="0" y="0" viewBox="17.317 0 65.487 100" enable-background="new 0 0 100 100" xml:space="preserve" height="78.671294608477" width="51.51947070025332" class="icon-dxe-0" data-fill-palette-color="quaternary" id="dxe-0"><path fill="#000000" d="M81.13 82.19L50.813 81.415 81.112 81.168 82.239 20.135A3.396 3.396 0 0 0 78.843 16.739H66.469L65.919 23.271V12.463C65.919 5.591 60.328 0 53.456 0H46.664C39.792 0 34.202 5.591 34.202 12.463V16.738H21.28A3.397 3.397 0 0 0 17.884 20.134L19.011 81.167 49.309 81.414 18.992 82.19 17.317 96.603A3.396 3.396 0 0 0 20.713 99.999L50.061 99.433 79.408 100A3.396 3.396 0 0 0 82.804 96.604zM63.35 23.679A1.697 1.697 0 1 1 63.35 27.075 1.697 1.697 0 0 1 63.35 23.68M36.499 27.074A1.698 1.698 0 1 1 36.499 23.679 1.698 1.698 0 0 1 36.498 27.074M39.279 16.738L38.73 23.27V12.463C38.73 8.088 42.289 4.528 46.664 4.528H53.456C57.832 4.528 61.392 8.088 61.392 12.463V16.738z" data-fill-palette-color="quaternary"></path></svg></g></svg></g></svg></g></svg></g></svg></g><defs></defs></svg><rect width="395.52" height="82.75342724633632" fill="none" stroke="none" visibility="hidden"></rect></g></svg></g></svg>